/* XPM */
static char *result[] = {
/* columns rows colors chars-per-pixel */
"64 64 218 2 ",
"   c #55581D",
".  c #7D5D00",
"X  c #746B16",
"o  c #756B16",
"O  c #73671A",
"+  c #73681A",
"@  c #75681A",
"#  c #776A1A",
"$  c #7C6F1A",
"%  c #7D6F1A",
"&  c #7B6B1F",
"*  c #7D701A",
"=  c #7E711A",
"-  c #7F711A",
";  c #5F5D22",
":  c #4E713B",
">  c #4C713C",
",  c #606022",
"<  c #616022",
"1  c #7C7220",
"2  c #7C7221",
"3  c #7C7322",
"4  c #617A46",
"5  c #617B46",
"6  c #627A46",
"7  c #627B46",
"8  c #647B45",
"9  c #617C46",
"0  c #627C46",
"q  c #637C46",
"w  c #627D46",
"e  c #637D46",
"r  c #647D45",
"t  c #657E45",
"y  c #787A44",
"u  c #7E7C48",
"i  c #836100",
"p  c #8D6700",
"a  c #8D6800",
"s  c #8E6800",
"d  c #866709",
"f  c #997300",
"g  c #9C7806",
"h  c #9D7906",
"j  c #9E7906",
"k  c #9E7907",
"l  c #86751F",
"z  c #A17800",
"x  c #A17901",
"c  c #86702A",
"v  c #807E48",
"b  c #3EA67C",
"n  c #538C58",
"m  c #788654",
"M  c #6C935A",
"N  c #6D935A",
"B  c #6C935B",
"V  c #6D935B",
"C  c #6E945A",
"Z  c #6E955A",
"A  c #6E955B",
"S  c #6E965B",
"D  c #6E965C",
"F  c #70975B",
"G  c #71975B",
"H  c #449466",
"J  c #419E73",
"K  c #709965",
"L  c #40A57A",
"P  c #69A578",
"I  c #6AA679",
"U  c #69A878",
"Y  c #6AA879",
"T  c #B88700",
"R  c #B68D05",
"E  c #B58D06",
"W  c #B78E07",
"Q  c #B88800",
"!  c #B98800",
"~  c #B98900",
"^  c #BC8B00",
"/  c #B88E06",
"(  c #B99007",
")  c #BB9108",
"_  c #A18730",
"`  c #B79D3B",
"'  c #B79D3C",
"]  c #C59100",
"[  c #C49200",
"{  c #C59200",
"}  c #C69200",
"|  c #C89300",
" . c #CB9500",
".. c #CC9600",
"X. c #CD9700",
"o. c #CE9700",
"O. c #CF9800",
"+. c #CD9A01",
"@. c #D09900",
"#. c #D39C00",
"$. c #D79F00",
"%. c #D89F00",
"&. c #D9A000",
"*. c #DAA100",
"=. c #DAA200",
"-. c #DBA200",
";. c #DEA400",
":. c #DEA600",
">. c #DEA701",
",. c #DCA602",
"<. c #DDA602",
"1. c #DEA802",
"2. c #DFA803",
"3. c #E0A802",
"4. c #E0A803",
"5. c #E5AA00",
"6. c #EAB002",
"7. c #EBB102",
"8. c #EEB201",
"9. c #EEB301",
"0. c #EFB401",
"q. c #F0B501",
"w. c #F1B601",
"e. c #F1B602",
"r. c #F2B703",
"t. c #F5B902",
"y. c #F9BB00",
"u. c #FBBC00",
"i. c #FBBD01",
"p. c #FABC02",
"a. c #FBBE03",
"s. c #FDBF01",
"d. c #F8BC05",
"f. c #F9BE07",
"g. c #F1BA12",
"h. c #F0BA13",
"j. c #F1BB14",
"k. c #F0BB16",
"l. c #F1BB16",
"z. c #D7AE34",
"x. c #FEC003",
"c. c #F8C011",
"v. c #F8C013",
"b. c #F8C114",
"n. c #F9C114",
"m. c #F8C833",
"M. c #F8C935",
"N. c #F9CA34",
"B. c #F9CA35",
"V. c #A28F52",
"C. c #F6CA40",
"Z. c #F5CA43",
"A. c #F6CB43",
"S. c #F7CC40",
"D. c #F8CC41",
"F. c #FACC43",
"G. c #FACD45",
"H. c #F9CF4F",
"J. c #FED049",
"K. c #FFD44A",
"L. c #F7D45E",
"P. c #F8D45E",
"I. c #F8D45F",
"U. c #DFC573",
"Y. c #F7D460",
"T. c #F8D560",
"R. c #F8D564",
"E. c #F7D769",
"W. c #F7D76A",
"Q. c #F7D76B",
"!. c #F7D76C",
"~. c #F7D86C",
"^. c #F7D86D",
"/. c #F7D86E",
"(. c #F7D870",
"). c #F7D973",
"_. c #F7D974",
"`. c #3DB188",
"'. c #3DB189",
"]. c #6CB287",
"[. c #6CB387",
"{. c #6CB388",
"}. c #6DBA90",
"|. c #6DBB90",
" X c #6EBB91",
".X c #6CBB92",
"XX c #6CBC92",
"oX c #6DBC92",
"OX c #6FC8A0",
"+X c #6FC9A0",
"@X c #6FC9A1",
"#X c #70C9A1",
"$X c #BCB89D",
"%X c #DFC980",
"&X c #DAC997",
"*X c #F8DD82",
"=X c #F8DE86",
"-X c #FBEAAF",
";X c #FBEAB0",
":X c #FCEAB0",
">X c #FFEEB3",
",X c #FFEFB6",
"<X c #F5E8BB",
"1X c #A0E0C0",
"2X c #A1E0C1",
"3X c #A1E1C1",
"4X c #E4DFD0",
"5X c #FCEEC1",
"6X c #FDEFC8",
"7X c #FDF0C9",
"8X c #FFF3CC",
"9X c #FFF8D0",
"0X c #F7F1DE",
"qX c #FEF9EB",
"wX c #FEFAED",
"eX c #FFFCED",
"rX c #FFFCEE",
"tX c white",
/* pixels */
"OXOXOXOX#X#X#X#X#X#X#X#X#X#X#X#X+X+X+X+XOXOXOXOX@X@X@X@X#X#X#X#X+X+X+X+X#X#X#X#XOXOXOXOX#X#X#X#X#X#X#X#X#X#X#X#X+X+X+X+X#X#X#X#X",
"OXOXOXOX#X#X#X#X#X#X#X#X#X#X#X#X+X+X+X+XOXOXOXOX@X@X@X@X#X#X#X#X+X+X+X+X#X#X#X#XOXOXOXOX#X#X#X#X#X#X#X#X#X#X#X#X+X+X+X+X#X#X#X#X",
"OXOXOXOX#X#X#X#X#X#X#X#X#X#X#X#X+X+X+X+XOXOXOXOX@X@X@X@X#X#X#X#X+X+X+X+X#X#X#X#XOXOXOXOX#X#X#X#X#X#X#X#X#X#X#X#X+X+X+X+X#X#X#X#X",
"OXOXOXOX#X#X#X#X#X#X#X#X#X#X#X#X+X+X+X+XOXOXOXOX@X@X@X@X#X#X#X#X+X+X+X+X#X#X#X#XOXOXOXOX#X#X#X#X#X#X#X#X#X#X#X#X+X+X+X+X#X#X#X#X",
"OXOXOXOXOXOXOXOX#X#X#X#X#X#X#X#X#X#X#X#X#X#X#X#X@X@X@X@X@X@X@X@XOXOXOXOX#X#X#X#X@X@X@X@X#X#X#X#X#X#X#X#X#X#X#X#X@X@X@X@X#X#X#X#X",
"OXOXOXOXOXOXOXOX#X#X#X#X#X#X#X#X#X#X#X#X#X#X#X#X@X@X@X@X@X@X@X@XOXOXOXOX#X#X#X#X@X@X@X@X#X#X#X#X#X#X#X#X#X#X#X#X@X@X@X@X#X#X#X#X",
"OXOXOXOXOXOXOXOX#X#X#X#X#X#X#X#X#X#X#X#X#X#X#X#X@X@X@X@X@X@X@X@XOXOXOXOX#X#X#X#X@X@X@X@X#X#X#X#X#X#X#X#X#X#X#X#X@X@X@X@X#X#X#X#X",
"OXOXOXOXOXOXOXOX#X#X#X#X#X#X#X#X#X#X#X#X#X#X#X#X@X@X@X@X@X@X@X@XOXOXOXOX#X#X#X#X@X@X@X@X#X#X#X#X#X#X#X#X#X#X#X#X@X@X@X@X#X#X#X#X",
"#X#X#X#XOXOXOXOXOXOXOXOX@X@X@X@X#X#X#X#X#X#X#X#XOXOXOXOX#X#X#X#X#X#X#X#X#X#X#X#X@X@X@X@X#X#X#X#X#X#X#X#XOXOXOXOX+X+X+X+X@X@X@X@X",
"#X#X#X#XOXOXOXOXOXOXOXOX@X@X@X@X#X#X#X#X#X#X#X#XOXOXOXOX#X#X#X#X#X#X#X#X#X#X#X#X@X@X@X@X#X#X#X#X#X#X#X#XOXOXOXOX+X+X+X+X@X@X@X@X",
"#X#X#X#XOXOXOXOXOXOXOXOX@X@X@X@X#X#X#X#X#X#X#X#XOXOXOXOX#X#X#X#X#X#X#X#X#X#X#X#X@X@X@X@X#X#X#X#X#X#X#X#XOXOXOXOX+X+X+X+X@X@X@X@X",
"#X#X#X#XOXOXOXOXOXOXOXOX@X@X@X@X#X#X#X#X#X#X#X#XOXOXOXOX#X#X#X#X#X#X#X#X#X#X#X#X@X@X@X@X#X#X#X#X#X#X#X#XOXOXOXOX+X+X+X+X@X@X@X@X",
"#X#X#X#X#X#X#X#X@X@X@X@XOXOXOXOX#X#X#X#X'.'.'.'.#X#X#X#X#X#X#X#X#X#X#X#X#X#X#X#X#X#X#X#X#X#X#X#X#X#X#X#XOXOXOXOX#X#X#X#X#X#X#X#X",
"#X#X#X#X#X#X#X#X@X@X@X@XOXOXOXOX#X#X#X#X'.'.'.'.#X#X#X#X#X#X#X#X#X#X#X#X#X#X#X#X#X#X#X#X#X#X#X#X#X#X#X#XOXOXOXOX#X#X#X#X#X#X#X#X",
"#X#X#X#X#X#X#X#X@X@X@X@XOXOXOXOX#X#X#X#X'.'.'.'.#X#X#X#X#X#X#X#X#X#X#X#X#X#X#X#X#X#X#X#X#X#X#X#X#X#X#X#XOXOXOXOX#X#X#X#X#X#X#X#X",
"#X#X#X#X#X#X#X#X@X@X@X@XOXOXOXOX#X#X#X#X'.'.'.'.#X#X#X#X#X#X#X#X#X#X#X#X#X#X#X#X#X#X#X#X#X#X#X#X#X#X#X#XOXOXOXOX#X#X#X#X#X#X#X#X",
"#X#X#X#X#X#X#X#X'.'.'.'.OXOXOXOX#X#X#X#X`.`.`.`.+X+X+X+X#X#X#X#X`.`.`.`.OXOXOXOXOXOXOXOX+X+X+X+X@X@X@X@XOXOXOXOX#X#X#X#X#X#X#X#X",
"#X#X#X#X#X#X#X#X'.'.'.'.OXOXOXOX#X#X#X#X`.`.`.`.+X+X+X+X#X#X{.I H J `.`.OXOXOXOXOXOXOXOX+X+X+X+X@X@X@X@XOXOXOXOX#X#X#X#X#X#X#X#X",
"#X#X#X#X#X#X#X#X'.'.'.'.OXOXOXOX#X#X#X#X`.`.`.`.+X+X+X+X#X Xr ,   : L `.OXOXOXOXOXOXOXOX+X+X+X+X@X@X@X@XOXOXOXOX#X#X#X#X#X#X#X#X",
"#X#X#X#X#X#X#X#X'.'.'.'.OXOXOXOX#X#X#X#X`.`.`.`.+X+X+X+XoXF = d c y n b OXOXOXOXOXOXOXOX+X+X+X+X@X@X@X@XOXOXOXOX#X#X#X#X#X#X#X#X",
"#X#X#X#X#X#X#X#X#X#X#X#X`.`.`.`.#X#X#X#X#X#X#X#X#X#X#XoX> o R z.&X$Xu 6 oX#X#X#X#X#X#X#X@X@X@X@X#X#X#X#X@X@X@X@XOXOXOXOX#X#X#X#X",
"#X#X#X#X#X#X#X#X#X#X#X#X`.`.`.`.#X#X#X#X#X#X#X#X#X#XoXA X z :.K.9X4XV.1 S oX#X#X#X#X#X#X@X@X@X@X#X#X#X#X@X@X@X@XOXOXOXOX#X#X#X#X",
"#X#X#X#X#X#X#X#X#X#X#X#X`.`.`.`.#X#X#X#X#X#X#X#X#XoX0 $ E >.w.J.8X0X%X` 2 7 oX#X#X#X#X#X@X@X@X@X#X#X#X#X@X@X@X@XOXOXOXOX#X#X#X#X",
"#X#X#X#X#X#X#X#X#X#X#X#X`.`.`.`.#X#X#X#X#X#X#X#XoXS $ x 1.s.u.G.7XrX,XU._ 3 D oX#X#X#X#X@X@X@X@X#X#X#X#X@X@X@X@XOXOXOXOX#X#X#X#X",
"#X#X#X#X+X+X+X+X#X#X#X#XOXOXOXOX#X#X#X#X#X#X#XoXq * W 1.r.i.y.F.6XtXrX<XU.' 3 7 oX#X#X#XOXOXOXOX#X#X#X#XOXOXOXOXOXOXOXOX#X#X#X#X",
"#X#X#X#X+X+X+X+X#X#X#X#XOXOXOXOX#X#X#X#X#X#XoXB O f ,.x.a.d.c.H.:XwXtXeX>XU._ 3 D oX#X#XOXOXOXOX#X#X#X#XOXOXOXOXOXOXOXOX#X#X#X#X",
"#X#X#X#X+X+X+X+X#X#X#X#XOXOXOXOX#X#X#X#X#XoXe O g [ 6.a.p.v.S.R.*X;XqXtXeX<XU.' 3 7 oX#XOXOXOXOX#X#X#X#XOXOXOXOXOXOXOXOX#X#X#X#X",
"#X#X#X#X+X+X+X+X#X#X#X#XOXOXOXOX#X#X#X#XoXB O p T *.0.f.b.m.L.(.W.=X5XqXtXeX>XU._ 2 S oXOXOXOXOX#X#X#X#XOXOXOXOXOXOXOXOX#X#X#X#X",
"#X#X#X#X#X#X#X#XOXOXOXOX#X#X#X#X#X#X#XoXq O g T ] %.8.n.D.L.Q.(.~._.=X-XqXtXeX<XU.` 1 4 .XOXOXOX+X+X+X+X@X@X@X@X#X#X#X#X@X@X@X@X",
"#X#X#X#X#X#X#X#XOXOXOXOX#X#X#X#X#X#X XG = f { -.&.2.h.M.I.).(././.!.E.=X5XqXtXrX,X%XV.u K }.OXOX+X+X+X+X@X@X@X@X#X#X#X#X@X@X@X@X",
"#X#X#X#X#X#X#X#XOXOXOXOX#X#X#X#X#X{.r - ( <.7.q.0.k.Z.Y.Q.(.(././.^.!._.=X;XwXtXrX0X4X$Xv 8 ].OX+X+X+X+X@X@X@X@X#X#X#X#X@X@X@X@X",
"#X#X#X#X#X#X#X#XOXOXOXOX#X#X#X#X#XY < i +.t.e.9.9.l.A.T.Q.(.(././././.~.W.*X:X6X7X8X9X&Xc ; P OX+X+X+X+X@X@X@X@X#X#X#X#X@X@X@X@X",
"#X#X#X#X#X#X#X#X@X@X@X@X#X#X#X#X+XU , . ^ ;.=.$.$.4.j.B.I.).(././././.(.(.R.H.F.G.J.K.z.d , I #XOXOXOXOX#X#X#X#XOXOXOXOXOXOXOXOX",
"#X#X#X#X#X#X#X#X@X@X@X@X#X#X#X#X+X[.t # h Q } .. .#.5.g.C.P.Q.(.(.(.(.Q.L.S.c.y.u.w.:./ = r {.#XOXOXOXOX#X#X#X#XOXOXOXOXOXOXOXOX",
"#X#X#X#X#X#X#X#X@X@X@X@X#X#X#X#X+X+X|.Z + a ! O.X.o.#.3.g.N.P.).(.(.).L.m.v.d.i.s.>.z % F  X#X#XOXOXOXOX#X#X#X#XOXOXOXOXOXOXOXOX",
"#X#X#X#X#X#X#X#X@X@X@X@X#X#X#X#X+X+X+XXXe @ j ~ | X. .#.5.g.C.I.Q.Q.I.D.b.p.a.r.1.W $ 9 oX#X#X#XOXOXOXOX#X#X#X#XOXOXOXOXOXOXOXOX",
"@X@X@X@XOXOXOXOXOXOXOXOX#X#X#X#X+X+X+X+XXXV @ s ~ @.X.o.#.3.g.B.T.Y.M.n.f.a.x.1.x $ C .X3X3X3X3X#X#X#X#X#X#X#X#X+X+X+X+X#X#X#X#X",
"@X@X@X@XOXOXOXOXOXOXOXOX#X#X#X#X+X+X+X+X@XXXw @ j ~ | X. .#.5.j.A.Z.h.8.0.6.,.W $ 5 .XOX3X3X3X3X#X#X#X#X#X#X#X#X+X+X+X+X#X#X#X#X",
"@X@X@X@XOXOXOXOXOXOXOXOX#X#X#X#X+X+X+X+X@X@XXXV @ s ~ @.X.o.#.4.l.k.2.%.*.[ f * Z .XOXOX3X3X3X3X#X#X#X#X#X#X#X#X+X+X+X+X#X#X#X#X",
"@X@X@X@XOXOXOXOXOXOXOXOX#X#X#X#X+X+X+X+X@X@X@XXXw @ j ~ | X. .$.9.0.&.] T g O q .XOXOXOX3X3X3X3X#X#X#X#X#X#X#X#X+X+X+X+X#X#X#X#X",
"OXOXOXOX#X#X#X#X+X+X+X+X@X@X@X@X@X@X@X@X#X#X#X#XXXN @ s ~ O...$.9.q.-.T p O M XX+X+X+X+X3X3X3X3X#X#X#X#X#X#X#X#X1X1X1X1X#X#X#X#X",
"OXOXOXOX#X#X#X#X+X+X+X+X@X@X@X@X@X@X@X@X#X#X#X#X+XXXw @ j ! } =.e.7.{ k O w XX+X+X+X+X+X3X3X3X3X#X#X#X#X#X#X#X#X1X1X1X1X#X#X#X#X",
"OXOXOXOX#X#X#X#X+X+X+X+X@X@X@X@X@X@X@X@X#X#X#X#X+X+XXXN @ a Q ;.t.<.f & M XX+X+X+X+X+X+X3X3X3X3X#X#X#X#X#X#X#X#X1X1X1X1X#X#X#X#X",
"OXOXOXOX#X#X#X#X+X+X+X+X@X@X@X@X@X@X@X@X#X#X#X#X+X+X+XXXe + h ^ +.) l m XX+X+X+X+X+X+X+X3X3X3X3X#X#X#X#X#X#X#X#X1X1X1X1X#X#X#X#X",
"#X#X#X#X#X#X#X#XOXOXOXOX#X#X#X#XOXOXOXOX+X+X+X+X#X#X#X#XoXA # . i - G oX1X1X1X1X#X#X#X#X@X@X@X@X@X@X@X@X2X2X2X2X@X@X@X@XOXOXOXOX",
"#X#X#X#X#X#X#X#XOXOXOXOX#X#X#X#XOXOXOXOX+X+X+X+X#X#X#X#X#X Xt < < r  X#X1X1X1X1X#X#X#X#X@X@X@X@X@X@X@X@X2X2X2X2X@X@X@X@XOXOXOXOX",
"#X#X#X#X#X#X#X#XOXOXOXOX#X#X#X#XOXOXOXOX+X+X+X+X#X#X#X#X#X#X{.Y Y {.#X#X1X1X1X1X#X#X#X#X@X@X@X@X@X@X@X@X2X2X2X2X@X@X@X@XOXOXOXOX",
"#X#X#X#X#X#X#X#XOXOXOXOX#X#X#X#XOXOXOXOX+X+X+X+X#X#X#X#X#X#X#X#X#X#X#X#X1X1X1X1X#X#X#X#X@X@X@X@X@X@X@X@X2X2X2X2X@X@X@X@XOXOXOXOX",
"OXOXOXOX#X#X#X#X#X#X#X#X@X@X@X@XOXOXOXOX@X@X@X@X@X@X@X@X#X#X#X#XOXOXOXOX#X#X#X#X+X+X+X+X#X#X#X#XOXOXOXOX#X#X#X#XOXOXOXOX#X#X#X#X",
"OXOXOXOX#X#X#X#X#X#X#X#X@X@X@X@XOXOXOXOX@X@X@X@X@X@X@X@X#X#X#X#XOXOXOXOX#X#X#X#X+X+X+X+X#X#X#X#XOXOXOXOX#X#X#X#XOXOXOXOX#X#X#X#X",
"OXOXOXOX#X#X#X#X#X#X#X#X@X@X@X@XOXOXOXOX@X@X@X@X@X@X@X@X#X#X#X#XOXOXOXOX#X#X#X#X+X+X+X+X#X#X#X#XOXOXOXOX#X#X#X#XOXOXOXOX#X#X#X#X",
"OXOXOXOX#X#X#X#X#X#X#X#X@X@X@X@XOXOXOXOX@X@X@X@X@X@X@X@X#X#X#X#XOXOXOXOX#X#X#X#X+X+X+X+X#X#X#X#XOXOXOXOX#X#X#X#XOXOXOXOX#X#X#X#X",
"#X#X#X#X#X#X#X#X#X#X#X#XOXOXOXOX@X@X@X@X@X@X@X@X@X@X@X@X#X#X#X#X+X+X+X+XOXOXOXOX#X#X#X#X#X#X#X#X#X#X#X#X#X#X#X#X#X#X#X#X#X#X#X#X",
"#X#X#X#X#X#X#X#X#X#X#X#XOXOXOXOX@X@X@X@X@X@X@X@X@X@X@X@X#X#X#X#X+X+X+X+XOXOXOXOX#X#X#X#X#X#X#X#X#X#X#X#X#X#X#X#X#X#X#X#X#X#X#X#X",
"#X#X#X#X#X#X#X#X#X#X#X#XOXOXOXOX@X@X@X@X@X@X@X@X@X@X@X@X#X#X#X#X+X+X+X+XOXOXOXOX#X#X#X#X#X#X#X#X#X#X#X#X#X#X#X#X#X#X#X#X#X#X#X#X",
"#X#X#X#X#X#X#X#X#X#X#X#XOXOXOXOX@X@X@X@X@X@X@X@X@X@X@X@X#X#X#X#X+X+X+X+XOXOXOXOX#X#X#X#X#X#X#X#X#X#X#X#X#X#X#X#X#X#X#X#X#X#X#X#X",
"#X#X#X#X#X#X#X#X#X#X#X#X#X#X#X#X#X#X#X#XOXOXOXOX@X@X@X@X#X#X#X#XOXOXOXOXOXOXOXOXOXOXOXOXOXOXOXOX#X#X#X#X#X#X#X#X#X#X#X#X#X#X#X#X",
"#X#X#X#X#X#X#X#X#X#X#X#X#X#X#X#X#X#X#X#XOXOXOXOX@X@X@X@X#X#X#X#XOXOXOXOXOXOXOXOXOXOXOXOXOXOXOXOX#X#X#X#X#X#X#X#X#X#X#X#X#X#X#X#X",
"#X#X#X#X#X#X#X#X#X#X#X#X#X#X#X#X#X#X#X#XOXOXOXOX@X@X@X@X#X#X#X#XOXOXOXOXOXOXOXOXOXOXOXOXOXOXOXOX#X#X#X#X#X#X#X#X#X#X#X#X#X#X#X#X",
"#X#X#X#X#X#X#X#X#X#X#X#X#X#X#X#X#X#X#X#XOXOXOXOX@X@X@X@X#X#X#X#XOXOXOXOXOXOXOXOXOXOXOXOXOXOXOXOX#X#X#X#X#X#X#X#X#X#X#X#X#X#X#X#X",
"#X#X#X#X#X#X#X#X#X#X#X#X#X#X#X#X#X#X#X#X+X+X+X+XOXOXOXOX#X#X#X#XOXOXOXOXOXOXOXOX+X+X+X+X@X@X@X@X#X#X#X#X@X@X@X@X#X#X#X#X#X#X#X#X",
"#X#X#X#X#X#X#X#X#X#X#X#X#X#X#X#X#X#X#X#X+X+X+X+XOXOXOXOX#X#X#X#XOXOXOXOXOXOXOXOX+X+X+X+X@X@X@X@X#X#X#X#X@X@X@X@X#X#X#X#X#X#X#X#X",
"#X#X#X#X#X#X#X#X#X#X#X#X#X#X#X#X#X#X#X#X+X+X+X+XOXOXOXOX#X#X#X#XOXOXOXOXOXOXOXOX+X+X+X+X@X@X@X@X#X#X#X#X@X@X@X@X#X#X#X#X#X#X#X#X",
"#X#X#X#X#X#X#X#X#X#X#X#X#X#X#X#X#X#X#X#X+X+X+X+XOXOXOXOX#X#X#X#XOXOXOXOXOXOXOXOX+X+X+X+X@X@X@X@X#X#X#X#X@X@X@X@X#X#X#X#X#X#X#X#X"
};
