/* XPM */
static char *result[] = {
/* columns rows colors chars-per-pixel */
"64 64 205 2 ",
"   c #130F09",
".  c #32130D",
"X  c #391C16",
"o  c #3E211C",
"O  c #3F3F30",
"+  c #7B1C1C",
"@  c #42241C",
"#  c #7C211F",
"$  c #4D2D26",
"%  c #582D25",
"&  c #433C2D",
"*  c #433F30",
"=  c #7E2421",
"-  c #7F2A22",
";  c #683334",
":  c #334B1C",
">  c #384F1E",
",  c #39501E",
"<  c #384E23",
"1  c #365022",
"2  c #3B5322",
"3  c #3E5329",
"4  c #3F683C",
"5  c #425A2B",
"6  c #414132",
"7  c #4A4737",
"8  c #55483E",
"9  c #7D4F3F",
"0  c #476328",
"q  c #4C6A2B",
"w  c #5D6B29",
"e  c #4B6934",
"r  c #516E33",
"t  c #537035",
"y  c #1C1C4A",
"u  c #221F4B",
"i  c #22224E",
"p  c #2A264E",
"a  c #3C2C4A",
"s  c #242451",
"d  c #262B52",
"f  c #282956",
"g  c #2A2A5A",
"h  c #312D56",
"j  c #35356A",
"k  c #38376A",
"l  c #373874",
"z  c #3B3C74",
"x  c #4C3950",
"c  c #583A65",
"v  c #354B62",
"b  c #375165",
"n  c #534853",
"m  c #76554A",
"M  c #446E42",
"N  c #546040",
"B  c #6A6D54",
"V  c #454867",
"C  c #425367",
"Z  c #585466",
"A  c #444376",
"S  c #5A5B7A",
"D  c #655363",
"F  c #6B597B",
"G  c #842B28",
"H  c #853A28",
"J  c #873B3C",
"K  c #A62B2B",
"L  c #A8332E",
"P  c #AE3331",
"I  c #B23A39",
"U  c #945531",
"Y  c #A45A25",
"T  c #A55D2A",
"R  c #AB5E28",
"E  c #AD6227",
"W  c #AC632B",
"Q  c #B6662C",
"!  c #B8672D",
"~  c #B66B2F",
"^  c #B9682D",
"/  c #B66C33",
"(  c #CE7636",
")  c #CA783B",
"_  c #D07736",
"`  c #D27837",
"'  c #D57E3C",
"]  c #DC7E3B",
"[  c #943643",
"{  c #934B46",
"}  c #B14E4E",
"|  c #9E7845",
" . c #9C7D4A",
".. c #B26C40",
"X. c #997472",
"o. c #A67978",
"O. c #C15E5B",
"+. c #C46655",
"@. c #C16061",
"#. c #6C8233",
"$. c #79875C",
"%. c #5F9779",
"&. c #679B7C",
"*. c #619E7E",
"=. c #79987A",
"-. c #76A07F",
";. c #B98D35",
":. c #9FA13C",
">. c #A1A33D",
",. c #C28A2C",
"<. c #D6813F",
"1. c #DD823C",
"2. c #E1993A",
"3. c #DFC732",
"4. c #E8CC35",
"5. c #BE8250",
"6. c #BC9559",
"7. c #A9B34D",
"8. c #A68572",
"9. c #C1864A",
"0. c #D58342",
"q. c #C39154",
"w. c #C3BE46",
"e. c #C1B35B",
"r. c #D6967B",
"t. c #C5BC61",
"y. c #B3C35D",
"u. c #AEC360",
"i. c #C5C24B",
"p. c #CECA54",
"a. c #D2CD52",
"s. c #DBC15E",
"d. c #F5EE4D",
"f. c #E7D266",
"g. c #D9E879",
"h. c #EBE564",
"j. c #ECE664",
"k. c #F5EC6A",
"l. c #F6F06B",
"z. c #FAF36E",
"x. c #F8F374",
"c. c #6C6887",
"v. c #3DB189",
"b. c #5A9C8B",
"n. c #5DA18D",
"m. c #62AC83",
"M. c #69A48A",
"N. c #79A882",
"B. c #7EB885",
"V. c #7EBC9E",
"C. c #7FADA3",
"Z. c #6EC49D",
"A. c #71C39C",
"S. c #6FC8A0",
"D. c #70C9A1",
"F. c #78CBA5",
"G. c #948D8C",
"H. c #8E8F9A",
"J. c #AA9896",
"K. c #B19695",
"L. c #81AE82",
"P. c #88B786",
"I. c #89B688",
"U. c #9EA197",
"Y. c #B7A886",
"T. c #9898A1",
"R. c #90B3A7",
"E. c #ACACA9",
"W. c #BAB0AE",
"Q. c #CB9687",
"!. c #C8B994",
"~. c #D8BD96",
"^. c #F5B795",
"/. c #FAB492",
"(. c #C9A3A4",
"). c #C8BCA6",
"_. c #E1A7A7",
"`. c #E7B1AF",
"'. c #84C68B",
"]. c #88C688",
"[. c #96D290",
"{. c #92D498",
"}. c #90CBAD",
"|. c #B6D6B6",
" X c #ECCC9B",
".X c #F6D09E",
"XX c #DBE68E",
"oX c #D5EA91",
"OX c #F6F28A",
"+X c #CFC5B8",
"@X c #FBC5AA",
"#X c #ECD9B3",
"$X c #EFE0B7",
"%X c #F8E9BB",
"&X c #A0E0C0",
"*X c #CDCFCA",
"=X c #CCCCD6",
"-X c #E2C3C0",
";X c #E4CDC8",
":X c #F1D5D0",
">X c #FEEDC4",
",X c #FEF3C3",
"<X c #ECEAD0",
"1X c #F4EBE5",
"2X c #ECF2ED",
/* pixels */
"S.S.Z.S.D.D.D.D.D.D.D.D.D.D.D.D.S.S.S.S.S.S.S.S.S.S.S.S.D.D.D.D.S.S.S.S.D.D.D.D.S.S.S.S.D.D.D.D.D.D.D.D.D.D.D.D.S.S.S.S.D.D.D.D.",
"S.S.S.S.D.D.D.D.D.D.D.D.D.D.D.D.S.S.S.S.S.S.S.S.S.S.S.S.D.D.D.D.S.S.S.S.D.D.D.D.S.S.S.S.D.D.D.D.S.D.D.D.D.D.D.D.S.S.S.S.D.D.D.D.",
"S.S.S.S.D.D.D.D.D.D.D.D.D.D.D.D.S.S.S.S.S.S.S.S.S.S.S.S.D.D.D.D.S.S.S.S.D.D.D.D.S.S.S.S.D.D.D.D.D.D.D.D.D.D.D.D.S.S.S.S.D.D.D.D.",
"Z.S.S.S.D.D.D.D.D.D.D.D.D.S.D.D.S.S.S.S.S.S.S.S.S.S.S.S.D.D.D.D.S.S.S.S.D.D.D.D.S.S.S.S.D.D.D.D.D.D.D.D.D.D.D.D.S.S.S.S.D.D.D.D.",
"D.S.S.S.S.S.Z.D.D.D.D.D.D.D.D.D.D.D.D.D.D.D.D.D.D.D.S.D.D.D.S.S.S.S.S.S.D.D.D.D.S.S.S.D.D.D.D.D.D.D.D.D.D.D.D.D.S.S.S.D.D.D.D.D.",
"S.S.S.S.S.Z.S.S.D.D.D.D.D.D.D.D.D.D.D.D.D.D.S.D.D.D.D.D.D.D.S.S.S.S.S.S.D.D.D.D.S.S.S.S.D.D.D.D.D.D.D.D.D.D.D.D.S.S.S.D.D.D.D.D.",
"S.S.S.S.S.S.S.S.D.D.D.D.D.D.D.D.D.D.D.D.D.D.D.D.D.D.D.D.D.S.S.S.S.S.S.S.D.D.D.D.S.S.D.D.D.D.D.D.D.D.D.D.D.S.D.D.S.S.D.D.D.D.D.D.",
"S.S.Z.D.S.S.S.S.D.D.D.D.D.D.D.D.D.D.D.D.D.D.D.D.D.D.D.D.D.S.S.S.S.S.S.S.D.D.D.D.S.S.D.D.D.D.D.D.D.D.D.D.D.D.D.D.S.S.D.D.D.D.D.D.",
"D.D.D.D.S.S.S.S.S.S.S.S.S.S.S.S.D.D.D.D.D.D.D.D.S.S.S.S.D.D.D.D.S.S.D.D.D.D.D.D.D.S.S.S.D.D.D.D.D.D.S.S.S.S.S.S.S.S.D.D.D.D.S.S.",
"D.D.D.D.S.S.S.S.S.S.S.S.S.S.S.S.D.D.D.D.D.D.D.D.S.S.S.S.D.D.D.D.S.S.D.D.D.D.D.D.D.S.S.S.D.D.D.D.D.D.S.S.S.S.S.S.S.S.D.S.D.D.S.S.",
"D.D.D.D.S.S.S.S.S.S.S.S.S.S.S.S.D.D.S.D.D.D.D.D.S.S.S.S.D.D.D.D.D.D.D.D.D.D.D.D.D.D.S.S.D.D.D.S.D.D.S.S.S.S.S.S.S.S.S.S.S.S.S.S.",
"D.D.D.D.S.S.S.S.S.Z.S.S.S.S.S.S.D.D.D.D.D.D.D.D.Z.S.S.S.D.D.D.D.D.D.D.D.D.D.D.D.D.S.S.S.D.D.D.D.D.D.S.S.S.S.S.S.S.S.S.S.S.S.S.S.",
"D.D.D.D.D.D.D.D.S.S.S.D.S.S.S.S.D.D.D.D.v.v.v.v.D.D.D.D.D.D.D.D.D.D.D.D.D.D.D.D.D.D.D.D.D.D.D.D.D.D.D.D.S.S.S.S.D.D.D.D.D.D.D.D.",
"D.D.D.D.D.D.D.D.S.S.S.D.S.S.S.S.D.D.D.D.v.v.v.v.D.D.D.D.D.D.D.D.S.D.D.D.D.D.D.D.D.D.D.D.D.D.D.D.D.D.D.D.S.S.S.S.D.D.D.D.D.D.D.D.",
"D.D.D.D.D.D.D.D.S.S.D.D.S.D.S.S.D.D.D.D.v.v.v.v.D.D.D.D.D.D.D.D.D.D.D.D.D.D.D.D.D.D.D.D.D.D.D.D.D.D.D.D.S.S.S.S.D.D.D.D.D.D.D.D.",
"D.D.D.D.D.D.D.S.S.S.D.D.S.S.S.S.D.D.D.D.v.v.v.v.D.D.D.D.D.D.D.D.D.D.D.D.D.D.D.D.D.D.D.D.D.D.D.D.D.D.D.D.S.S.S.S.D.D.D.D.D.D.D.D.",
"D.D.D.D.D.D.D.D.v.v.v.v.D.D.S.S.S.S.D.D.b.v.v.v.S.S.S.S.D.D.D.D.v.v.v.v.S.S.S.S.S.S.S.S.D.S.S.S.S.S.S.S.S.S.S.S.S.S.D.D.D.D.D.D.",
"D.D.D.D.D.D.D.D.v.v.v.v.S.S.S.S.S.S.S.D.v.v.v.v.S.S.S.S.D.D.D.D.v.v.v.v.S.S.S.S.S.S.S.S.D.S.S.S.S.S.S.S.S.S.S.S.S.S.D.D.D.D.D.D.",
"D.D.D.D.D.D.D.D.v.v.v.v.S.S.S.S.S.D.D.D.v.v.v.v.S.S.D.D.D.D.D.D.v.v.v.v.S.S.S.S.S.S.S.S.D.D.S.S.S.D.D.D.S.S.S.S.S.D.D.D.D.D.D.D.",
"D.D.D.D.D.D.D.D.v.v.v.v.S.S.S.S.S.D.D.D.v.v.v.v.S.S.S.D.D.D.D.D.v.v.v.v.S.S.S.S.S.S.S.S.D.D.S.S.S.D.D.D.S.S.S.S.S.D.S.D.D.D.D.D.",
"D.D.D.D.S.D.D.D.D.D.D.D.v.v.v.v.D.D.S.D.S.S.S.S.D.D.D.D.v.v.v.v.S.S.S.S.D.D.D.D.S.S.S.D.S.S.S.S.D.D.D.D.S.S.S.S.S.S.S.S.D.D.D.D.",
"D.D.D.D.D.D.D.D.D.D.D.D.v.v.v.v.D.D.D.D.S.S.S.S.D.D.D.D.v.v.v.v.S.S.S.S.D.D.D.D.S.S.D.D.S.S.S.S.D.D.D.D.S.S.S.S.S.S.S.S.D.D.D.D.",
"D.D.D.D.D.D.D.D.D.D.S.S.v.v.v.v.D.D.D.D.D.D.S.S.D.D.D.D.v.v.v.v.D.D.D.D.D.D.S.D.D.D.D.D.S.S.S.S.D.D.D.D.D.D.D.S.S.S.S.S.D.D.D.D.",
"D.D.D.D.D.D.D.D.D.D.D.Z.v.v.v.v.D.D.D.D.D.S.S.S.D.D.D.D.v.v.v.v.D.D.D.D.D.D.D.D.D.D.D.D.S.S.S.S.D.D.D.D.D.D.D.D.S.S.S.S.D.D.D.D.",
"D.D.D.D.S.S.S.S.S.S.S.S.S.S.S.S.D.D.D.D.D.D.D.D.D.D.D.D.D.D.D.D.D.D.D.D.D.D.D.D.D.D.D.D.Z.D.S.S.D.D.D.D.S.S.S.S.S.S.S.S.S.S.S.S.",
"D.D.D.S.S.S.S.S.S.S.D.S.S.S.S.S.D.D.D.D.D.D.D.D.S.D.D.D.D.D.D.D.D.D.D.D.D.D.D.D.D.D.D.D.S.D.S.S.D.D.D.D.S.S.S.S.S.S.S.S.S.S.S.S.",
"D.D.D.D.S.S.S.S.D.D.D.D.S.S.S.S.D.D.D.D.D.D.S.S.D.D.D.D.D.D.D.D.D.D.D.D.D.D.D.D.D.D.D.D.S.Z.D.S.D.D.D.D.S.S.S.S.S.S.S.S.D.D.D.D.",
"D.D.D.D.S.S.S.S.D.D.D.D.S.S.S.S.D.D.D.D.D.S.S.S.D.D.D.D.D.D.D.D.D.D.D.D.D.D.D.D.D.D.D.D.S.S.S.S.D.D.D.S.S.S.S.S.S.S.S.S.D.D.D.D.",
"D.D.D.D.D.D.D.D.S.S.S.S.S.D.D.D.D.D.S.S.S.S.S.S.D.D.S.S.S.B. .W W W E E ~ :.N.S.D.D.D.D.S.S.S.S.S.S.S.S.S.S.S.D.D.D.D.D.S.S.S.S.",
"D.D.D.D.D.D.D.S.S.S.S.S.D.D.D.D.D.D.S.S.Z.A.| E W W W W W W R R W E E ^ ( <.+.q.P.Z.D.D.S.S.S.S.S.S.S.S.S.S.S.D.D.D.D.D.S.S.D.D.",
"D.D.D.D.D.D.D.D.S.S.S.S.D.D.D.D.D.{.oXx.d.3.;.Y W E W W W R Q ^ ( ] ] ] ] ] 1.2.4.d.x.oXF.D.S.S.S.S.S.S.S.S.D.D.D.D.D.D.D.D.D.D.",
"D.D.D.D.D.D.D.D.S.S.S.S.D.D.D.D.D.[.d.3.;.E E E E E E ^ ( ' ' ' ] 1.1.] ] ] 1.1.1.1.1.e.A.D.S.S.S.S.S.S.S.S.S.D.D.D.D.D.D.D.D.D.",
"D.D.D.D.D.D.S.S.S.S.S.S.F.{.oXOXOXf.,.E R R E ^ ( ] ] ] ] ] ] ] ] ] ] _ ^ ^ _ ` ^ ^ _ ] <.0.+.q.].D.D.S.D.D.D.D.S.S.S.S.S.S.S.Z.",
"D.D.D.D.D.S.S.S.S.S.S.S.D.[.XXz.d.3.,.R R ^ _ ] ] ] ] ] ] ( ! ^ _ 1.1._ Q Q _ ] ] _ ! R E E R | -.F.S.S.D.S.D.D.S.S.S.S.S.S.S.S.",
"D.D.D.D.D.D.S.S.S.S.D.u.:./ +.1.) W R ! _ ] ] ] ] ] ] _ Q Q ( ' ] 1.] ( Q Q _ ] ] ( W T T T T U x f d d f b n.D.S.S.S.S.S.S.S.S.",
"D.D.D.D.D.D.S.S.S.S.F.P.q.+.] ` ~ T R ! _ ] ] 1.] 1.] ( Q E W W _ ( ^ R T W ( ..x i p p p p p h j z v k f v n.S.S.S.S.Z.S.S.S.S.",
"D.S.S.S.S.S.V.S.S.S.S.V.q.] ] ` Q Q ( ( ! ! _ ] ] ( ^ R E E E W Q ~ W U x p p h i f j z z z z z z z z j f v n.S.S.S.S.S.S.S.S.S.",
"S.S.S.S.S.S.S.S.S.S.S.B.q.] 1.` ^ Q ` ( Q ! _ _ ^ Q Q W Y Y Y / r.^./.r.n V H.H.A s j z z z z z z z z j s v n.D.S.S.S.D.S.S.D.D.",
"D.D.S.S.S.S.S.S.S.S.S.L.q.] ] _ Q ^ ` ` ! ^ _ ( Q 5. X!.6     $ 6././.Q.c V T.T.c y j z z j g s p s s s i v n.S.S.S.D.D.D.D.D.D.",
"D.D.S.S.S.S.S.S.S.S.D.I.q.1.] _ ^ ^ ` ] ] ` ] ( Q 5. X>X#X#X#XY.& n !.).Z S =X=Xc.y u s u g k z z z z j h C M.S.S.S.D.D.D.D.D.D.",
"S.S.S.S.S.D.D.D.S.S.S.I.q.1.1.1.' ' 1.( ~ ~ ( ( Q 9. X+X8     8 !.%X,X).Z S =X=Xc.h A A z l z z z l z F Q.^.^.~.|.&X&X&XZ.D.D.D.",
"S.S.S.S.S.S.D.D.S.S.S.P.q.] <.` ^ R W W W W Q W W T R ..~.$X$X%X%X%X%X+XZ c.=X1X`.^.$X).c.l l z z z l F Q./.^.+X|.&X&X&XZ.D.D.D.",
"S.S.S.S.D.D.D.D.S.'.6.0.0.) / W W  .N.D.D.N. .W W T G G L @.`.:X>X>X%X.Xt.t.<X1X@X@X%X).c.l l z z z z k f b n.F.&X&X&X&XD.D.D.D.",
"S.S.S.S.D.D.D.D.D.D.D.S.D.D.D.D.D.D.D.D.D.S.S.S.D.D.S.=.U O._.:X:X$X.XQ.D D Q././././.Q.c.l l b z z z j d v n.D.&X&X&X&XD.D.D.D.",
"D.D.D.D.S.D.D.D.S.S.S.S.D.D.D.D.S.D.S.S.D.S.S.S.S.N.m { o.o.} I I +.s.OX@X_.@.I I I P [ c l z z z z z j g b R.&XD.S.S.S.Z.D.D.Z.",
"D.D.D.D.D.D.D.D.S.S.Z.S.D.D.D.D.S.Z.S.S.D.D.S.S.S.V.U.X.{ J X.(.`._.O.P I } _.-X(.o.J ; c l z j g i i s g C C.&XD.S.S.S.D.D.D.D.",
"D.D.D.D.D.D.D.D.S.S.S.Z.D.D.D.D.S.S.S.S.S.S.S.S.S.V.U.X.J J o.K.J.o.} K K I o.K.K.X.k u y s i s d d d b V.&X&X&XD.D.S.S.S.S.D.S.",
"D.D.D.D.D.D.D.D.S.S.S.S.D.D.D.D.S.S.S.S.S.S.S.S.S.N.m = # # G H J G K K G G G G - ; a d s d d v b.D.D.Z.&X&X&X&XD.D.S.S.S.S.Z.S.",
"S.S.S.S.D.D.D.D.D.D.D.D.S.D.D.D.S.A.S.S.S.S.D.D.D.-.9 U ;.i.w.7.Y.o.J + + + - 9 -.S.S.S.D.D.S.D.S.D.D.D.D.D.S.D.S.S.S.S.D.D.D.D.",
"S.S.S.S.D.D.D.D.D.D.D.D.S.D.D.D.S.S.S.S.S.S.D.'.u.p.h.l.z.z.z.z.l.s.T # # Y >.y.A.S.S.S.D.D.D.D.S.Z.S.S.D.D.D.D.S.S.S.S.D.D.D.D.",
"S.S.S.S.D.D.D.D.D.D.D.D.D.D.D.D.S.S.D.D.S.Z.D.'.y.a.j.z.z.z.z.z.z.l.k.k.k.k.z.g.[.D.S.S.D.D.D.D.S.D.Z.D.D.D.D.D.S.S.S.S.D.D.D.D.",
"S.S.S.S.D.D.D.D.D.D.D.D.D.D.D.D.S.S.D.].y.i.i.a.j.z.l.z.z.z.z.z.z.x.z.z.z.z.z.g.[.D.S.S.D.D.D.D.S.Z.S.D.D.D.D.D.S.Z.S.S.D.D.D.D.",
"S.S.D.D.D.D.D.D.D.D.S.S.S.S.S.S.S.'.u.i.w.a.j.z.z.z.z.z.z.z.z.z.z.z.z.z.z.z.z.j.a.u.'.S.D.D.D.D.D.D.D.D.D.D.D.D.D.D.D.D.D.D.D.D.",
"S.S.D.D.D.D.D.D.D.S.S.S.S.S.S.S.Z.B.u.7.w.a.j.z.l.z.z.z.z.z.z.z.z.z.z.z.z.z.z.j.a.u.B.S.S.S.D.D.D.D.D.D.D.D.D.D.D.D.D.D.D.D.D.D.",
"S.S.D.D.D.D.D.D.D.D.S.S.S.S.S.n.e 1 > w >.w.7.i.i.a.j.l.z.z.z.z.z.x.z.z.z.j.a.>.q , , 4 m.S.S.S.D.D.D.D.D.D.D.D.D.D.D.D.D.D.D.D.",
"S.S.D.D.D.D.D.S.D.D.S.S.S.n.M 1 : : : : , , 1 w >.i.w.a.j.z.z.z.z.l.l.h.a.>.#.0 , , : 4 m.D.D.S.D.D.D.D.D.D.D.D.D.D.D.D.D.D.D.D.",
"D.D.D.S.D.D.D.D.D.D.D.D.D.m.M 1 3 1 1 1 : : : 1 0 q q #.>.i.i.7.i.>.w 2 q q q q e 5 < e m.S.S.S.D.D.D.S.D.D.D.D.D.D.D.D.D.D.D.D.",
"D.D.D.D.D.D.D.D.D.D.D.D.D.D.D.D.R.E.J.8.N 1 3 5 e r q q q w 2 < , , 3 3 3 0 e t t t e $.).*X}.S.D.D.D.D.D.D.D.D.D.D.D.D.D.D.D.D.",
"D.D.D.D.D.D.D.D.D.D.D.D.S.S.D.D.S.C.E.E.E.E.E.W.+X).$.e 0 5 3 1 < B *X2X2X2X;X-X-X-X;X).R.S.S.Z.D.D.D.D.D.D.D.D.D.D.D.D.D.D.D.D.",
"D.D.D.D.D.D.D.D.D.D.D.D.S.S.S.m.3 X X 8 H.G.m ; ; X.+X2X2X1X:X;X;X+X}.D.S.M.N o o o o X X 7 n.Z.D.D.D.D.D.D.D.D.D.D.D.S.D.D.D.D.",
"D.D.D.D.D.D.D.D.D.D.D.D.S.D.D.b.6 . . . X @ % m &.A.F.F.F.F.F.F.D.S.S.Z.Z.S.V.%.& . . . . 6 *.S.D.D.D.D.S.S.S.S.D.D.D.D.D.D.D.D.",
"D.D.D.D.D.D.D.D.D.D.D.D.D.D.D.&.6 X . . . . . * *.D.Z.Z.D.D.D.D.S.S.S.S.S.Z.V.%.* . . . . 6 *.S.D.D.D.D.S.S.S.S.D.D.D.D.D.D.D.D.",
"D.D.D.D.D.D.D.D.D.D.D.D.D.D.D.D.D.%.O . . . . < %.V.S.S.D.D.S.S.S.S.S.S.S.%.< o % % X . . * b.Z.D.D.D.D.S.S.S.S.D.D.D.D.D.D.D.D.",
"D.D.D.D.D.D.D.D.D.D.D.D.D.D.D.D.Z.b.O . . . . X % B M.S.S.D.S.S.S.S.S.S.S.b.O . . . . . . < m.S.D.D.D.D.S.S.S.S.D.D.D.D.S.D.D.D."
};
