/* XPM */
static char *result[] = {
/* columns rows colors chars-per-pixel */
"64 64 111 2 ",
"   c #000000",
".  c #0C0200",
"X  c #050907",
"o  c #090907",
"O  c #080B09",
"+  c #140201",
"@  c #1B0602",
"#  c #150902",
"$  c #1C0C03",
"%  c #17070A",
"&  c #1E0A0B",
"*  c #0A110E",
"=  c #0C1612",
"-  c #0E1914",
";  c #1F1114",
":  c #101D17",
">  c #111E18",
",  c #230B03",
"<  c #251206",
"1  c #2A1306",
"2  c #2A150A",
"3  c #2C190A",
"4  c #301507",
"5  c #351907",
"6  c #321709",
"7  c #351C0D",
"8  c #3A1E0D",
"9  c #231415",
"0  c #22171E",
"q  c #25181E",
"w  c #2B1A18",
"e  c #361F10",
"r  c #301F1E",
"t  c #37210E",
"y  c #38200E",
"u  c #372010",
"i  c #3B2211",
"p  c #38231B",
"a  c #271C24",
"s  c #2B1E24",
"d  c #281F28",
"f  c #162820",
"g  c #182B22",
"h  c #1E362B",
"j  c #2B2028",
"k  c #332426",
"l  c #3E2A24",
"z  c #213B2F",
"x  c #233E32",
"c  c #36313F",
"v  c #3A3239",
"b  c #412714",
"n  c #452916",
"m  c #472D18",
"M  c #4B2D19",
"N  c #4C301A",
"B  c #52331D",
"V  c #4D3224",
"C  c #47332C",
"Z  c #543620",
"A  c #563920",
"S  c #5E3D24",
"D  c #433638",
"F  c #613F24",
"G  c #244134",
"H  c #284739",
"J  c #2B4D3E",
"K  c #624126",
"L  c #664429",
"P  c #69472A",
"I  c #6C4B2D",
"U  c #714D2E",
"Y  c #734E30",
"T  c #775132",
"R  c #7C5434",
"E  c #3F3742",
"W  c #3C3847",
"Q  c #3A394B",
"!  c #2C5040",
"~  c #37624F",
"^  c #3C6B56",
"/  c #47414D",
"(  c #4A495C",
")  c #42765E",
"_  c #4C4E63",
"`  c #4E536B",
"'  c #505773",
"]  c #555C77",
"[  c #447961",
"{  c #478167",
"}  c #478168",
"|  c #488268",
" . c #4E8C70",
".. c #539577",
"X. c #549779",
"o. c #589E7F",
"O. c #5D6786",
"+. c #5F6A8B",
"@. c #606D8E",
"#. c #697A9F",
"$. c #59A180",
"%. c #5FAD89",
"&. c #60AD8A",
"*. c #62B18E",
"=. c #64B490",
"-. c #67B994",
";. c #69BC96",
":. c #6EC69E",
">. c #6FC7A0",
",. c #6FC9A0",
"<. c #70C9A1",
/* pixels */
"d 0 % . . . . . . . + + . . . + + . . + . . + + . . . . + . . . + . + . . + . . + . . + . . + . . + . . + . . . . % a Q ' @.#.#.",
"j q @ + + + + + + + + + + + + + + + + + + + + + + + + + @ + + + + + + + + + + + + + + + + + + + + + + + + + + + + & s W ` +.#.#.",
"k r 2 , , , , , , , , , , , , , , , , , , , , , , , , , , , , , , , , , , , , , , , , , , , , , , , , , , , , , , 2 k E _ ] O.+.",
"l l e 7 8 8 8 8 8 8 8 8 8 8 8 8 y 8 8 y 8 8 8 8 8 8 8 8 8 8 8 8 8 8 8 8 8 8 8 8 8 8 y y 8 8 8 8 8 8 8 8 8 8 8 8 8 i l D / ( _ ` ",
"V V V Z B B B Z B B B B B B B B Z B Z B B B Z Z B B B B B B B B A B B B B B B B B B Z B Z Z Z Z B B B B B B B B Z Z Z C v v v c ",
"S S L P P P P P P P I P P P P I P P P P P P P P P I P P P P P P P P P P P P P I P P P P P P L P P P P P P P P P L F S V p w 9 ; ",
"S F Y R R T R T R T T T T T T T T T T T T T T T T T T R R T T T T T T T T R T T T T T T T T T T R T T T R T R R Y Y F M 7 , + + ",
"F L T R R R T R R R R R R R R R R R R R R R R R R R R R R R R R R R R R R R R R R R R R R R R R R R R R R R R R T Y F M 5 , + . ",
"K L T R R R R R R R R R R R R R R R R R R R R R R R R R R R R R R R R R R R R R R R R R T R R R R R R R R R R R R Y F N 5 , + . ",
"S L U T R T T T T T T T T T T T T T T T T T T T T T T T T T T T T T T T T T T T T T T T T T T T T T T T T T R T T Y F M 7 , + + ",
"S S P Y Y U I I I I I P I I I I I I I P P I I I I I I I P I I I I I U I I I I I I U I I I I I I I I I I I I I Y Y P S M 6 , + + ",
"Z A F L K K S S S S S S S S S F S F F S K S S F S S S S F F S S S F S F S F S S S S S S K S S S S S S S S K S P L S B b 4 , + + ",
"M N B A Z N M M M m M M M M M M N N N N N N N N N N N N N N N N M M N N N m N N N N N N N N N N N N N N N B B A S B M 8 1 @ + + ",
"n M M B m b u u u u u u e e e e u u e e e u u u u u e e u u u u e e u u u u u u e e u u u u u u u e e e y u i M M M M 8 1 , + + ",
"n m M M i e 7 7 3 7 3 6 3 2 1 < < < < < < < < < < < < < < < < 1 < < < < < < < < < < < < < < < < < < < < < 2 6 b M M n 8 1 , + + ",
"M M B N b e 3 3 3 7 7 6 1 $ % + . # . + + . + o + + + . + + + + + + + + . + # . + . + + . . + # + . + . + $ 1 b M M M i 1 @ + + ",
"B A S Z M u e 7 8 8 y 6 < # .               .                   .                                         . < i N A B n 5 , + + ",
"F F F S M i 7 7 8 b b 8 1 +                                                                               . # i B S S N 5 , + + ",
"F F L L B i u 7 b b b y < .                                                                                 # i A K S N 8 , + + ",
"F L P F Z b u u b m n y < .                                                                                 # i A L K B 8 , + + ",
"K K P K B b u u i n n y < .                                                                                 # u A L F B 7 , + + ",
"K S P F N b u u b n b 8 < +                                                                                 # u S F F M 8 , + + ",
"K K P K N b u 7 i m n y < .                                                                                 # i Z F F B 7 , + + ",
"F L P K B b u t i n n y < .                                                                                 # i A K F N 8 , + + ",
"F L L K B n u u i m b 7 < o                                                                                 # i A K F B 5 , + + ",
"K K L K B i u t i m b y < .                                                                                 # u A K F B 8 , + + ",
"K K L K B b u e i n n 8 < .                                                                                 # u A K F B 8 , + + ",
"F K L K B i u 7 i m b t < .                                                                               X # i A K F B 7 , + + ",
"K K L K V b u t b n n 8 , .                                                                                 # y B F F B 8 , + + ",
"S L L K N b u 7 i n n e < .                                                                               . # i S F F B 7 , + + ",
"K K L K B b i u b n n 8 < .                                                                                 # i B L F B 7 , + + ",
"F L L K B i u t 8 n n e < .                                                                                 # i B K F N 7 , + + ",
"F L L L B i u 7 i n n y 2 .                                                                                 # y A L F B 5 , + + ",
"F F L F B b u e b n b y < .                                                                                 # i B K F B t , + + ",
"F L P F B i u t i n b y < .                                                                                 # i S K K B 7 , + + ",
"F K P L N n u 7 b n n u < .                                                                                 # y B L K N 8 , + + ",
"F F L K N b u u i n b 8 < .                                                                                 # i S F F B 7 , + + ",
"K L L K B b u u b n b 8 < .                                                                                 # i B F F B 7 , + + ",
"F L P F N b e 7 i n b e < .                                                                                 # y A K F N 7 , + + ",
"F K L K B b u 7 b n n 8 < .                                                                                 # i B K F N 8 , + + ",
"F L L K N n t t b n b 8 < .                                                                                 # i S K S B 5 , + + ",
"F K L K B p u t i n b 8 < .                                                                                 # i B K S B 8 , + + ",
"F K P K N n u t b n b y < .                                                                                 # u S K K B 8 , + + ",
"K K L K B i u 7 i n n 7 < .                                                                               X # i B L K B 7 , + + ",
"F L P K B n t t i n n 8 < .                                                                                 # y B F F B 8 , + + ",
"F F L K B p t t i m n 8 < .                                                                                 # i S F F B 7 , + + ",
"F L L F B b t t b n n y < .                                                                               . # y B L F B 7 , + + ",
"F F P L B i u 7 i n b y < .                                                                                 # i B K F N 7 , + + ",
"K K L K B b u u i m b 8 < .                                                                                 # i B L S B t , + + ",
"F L L K N b u u i m n y < .                                                                                 # i A K L N 7 , + . ",
"K K L K B b u t i n n 8 1 .                                                                               . # u A K K B 8 , + + ",
"L L P L Z b u t b n n i 1 .                                                                                 # i S K K B 8 , + + ",
"L L I L B p t u b m m y 1 o                                                                                 # i S L F B 8 , + + ",
"K K K L B n t t y n b t < .                                                                                 # i Z F F B 8 , + + ",
"V B A B b t 3 3 7 y t 7 $ .                                                                                 + 3 M B B n 4 , + + ",
"i i i t 3 < # # , < < # +                                                                                     $ 7 u e 7 , , + + ",
"$ $ # # . . . .   . .                                                                                           # # < $ @ + + + ",
"  .   X X                 X           X       X X       X             X       X     X           X       X     X       . . + + + ",
": = - > > - > > > > > > : > > > : : : : > > > - : : > > - > : : > > > - > - > - : : > - > > - > - > : : : : > > > : = * O . + + ",
"z x H J ! ! ! J J J J J J J J J J J J J J J J J J J J J J J J J J J J J J J J ! J J J J ! J ! J J J J J J J ! ! J H z g - O .   ",
"~ ^ [ | | | | | | | | | | | | { { { { { { { { { [ } } } | | | { } } | [ } } { { { { { { } } } } } | } | | | | | | ) ~ H f * X   ",
"|  .$.*.=.&.&.&.&.&.&.&.&.&.&.&.*.*.&.&.%.%.%.%.%.%.%.%.&.&.&.&.%.%.%.%.%.%.%.%.%.%.%.%.%.%.%.%.&.&.&.&.%.%.*.=.*.o.| ~ h - X   ",
"..o.-.:.<.>.:.:.:.:.:.:.:.:.:.:.:.:.:.:.:.:.:.:.:.:.:.:.:.:.:.:.:.:.:.:.:.:.:.:.:.:.:.:.>.>.:.:.:.:.:.:.,.>.>.<.:.=.X.^ x : X   ",
"o.&.;.<.<.<.<.<.<.<.<.<.<.<.<.<.<.<.<.,.:.:.,.,.>.,.,.,.<.<.<.,.,.,.,.,.:.>.,.:.,.,.,.,.,.,.,.<.<.<.<.<.,.,.,.<.>.-.o.) G > X   "
};
